<svg width="34" height="34" viewBox="0 0 34 34" fill="none" xmlns="http://www.w3.org/2000/svg">
<path d="M9.31117 2.51887L10.4526 5.94323C10.8852 7.24087 10.6304 8.66931 9.77592 9.73741C8.72299 11.0536 8.59976 12.8858 9.46695 14.3311L10.0137 15.2423C10.2476 15.6321 10.5284 15.9918 10.8499 16.3133L14.2683 19.7317L17.6727 23.1361C18.0035 23.4669 18.3735 23.7558 18.7746 23.9965L20.0633 24.7697C21.2786 25.4989 22.8144 25.4197 23.9483 24.5693C24.7417 23.9742 25.7509 23.7453 26.7234 23.9398L31.3233 24.8598C32.2982 25.0548 33 25.9108 33 26.9051C33 27.3168 32.8781 27.7194 32.6497 28.062L32.003 29.032C31.6297 29.592 31.164 30.0843 30.6256 30.4881L29.4239 31.3894C28.6934 31.9373 27.8607 32.3336 26.9749 32.5551C25.8089 32.8465 24.5868 32.8262 23.4312 32.496L20.8041 31.7454C20.0907 31.5416 19.3978 31.2721 18.7342 30.9403L16.4257 29.786C15.5115 29.3289 14.6594 28.7569 13.8902 28.0838L9.60723 24.3362C9.07338 23.8691 8.582 23.3555 8.13886 22.8016L5.68293 19.7317L4.29374 17.8795C3.66164 17.0367 3.14328 16.1143 2.75202 15.1361L2.18967 13.7303C1.91745 13.0497 1.70816 12.3457 1.56442 11.627L1.3565 10.5874C1.12176 9.4137 1.15058 8.20254 1.44088 7.04136C1.66561 6.14243 2.04322 5.28883 2.5572 4.51786L2.60667 4.44365C3.09299 3.71417 3.69982 3.0727 4.40119 2.54667L5.87107 1.44426C6.25557 1.15589 6.72323 1 7.20385 1C8.15997 1 9.00882 1.61181 9.31117 2.51887Z" stroke="#2B2E73" stroke-opacity="0.5" stroke-width="2"/>
</svg>
