<svg width="32" height="32" viewBox="0 0 32 32" fill="none" xmlns="http://www.w3.org/2000/svg">
<path d="M26.6363 7.61905C26.6363 11.319 23.7846 14.2381 20.3636 14.2381C16.9426 14.2381 14.0909 11.319 14.0909 7.61905C14.0909 3.9191 16.9426 1 20.3636 1C23.7846 1 26.6363 3.9191 26.6363 7.61905Z" stroke="#2B2E73" stroke-opacity="0.5" stroke-width="2"/>
<path d="M9.72729 24.7619C9.72729 20.8959 12.8613 17.7619 16.7273 17.7619H24C27.866 17.7619 31 20.8959 31 24.7619V31H9.72729V24.7619Z" stroke="#2B2E73" stroke-opacity="0.5" stroke-width="2"/>
<ellipse cx="11.6364" cy="7.61905" rx="7.27273" ry="7.61905" fill="#7FC485"/>
<path d="M17.9091 7.61905C17.9091 11.319 15.0574 14.2381 11.6364 14.2381C8.21537 14.2381 5.36365 11.319 5.36365 7.61905C5.36365 3.9191 8.21537 1 11.6364 1C15.0574 1 17.9091 3.9191 17.9091 7.61905Z" stroke="#2B2E73" stroke-opacity="0.5" stroke-width="2"/>
<path d="M0 24.7619C0 20.3436 3.58172 16.7619 8 16.7619H15.2727C19.691 16.7619 23.2727 20.3436 23.2727 24.7619V32H0V24.7619Z" fill="#7FC485"/>
<path d="M1 24.7619C1 20.8959 4.13401 17.7619 8 17.7619H15.2727C19.1387 17.7619 22.2727 20.8959 22.2727 24.7619V31H1V24.7619Z" stroke="#2B2E73" stroke-opacity="0.5" stroke-width="2"/>
</svg>
