<svg width="32" height="32" viewBox="0 0 32 32" fill="none" xmlns="http://www.w3.org/2000/svg">
<mask id="path-1-inside-1_9:3" fill="white">
<path fill-rule="evenodd" clip-rule="evenodd" d="M22.2142 6.40001C27.6187 6.40001 32 10.7813 32 16.1858C32 20.2195 29.5596 23.6831 26.0747 25.1807L26.7665 32L19.4983 25.9717H18.5131C13.1085 25.9717 8.72727 21.5904 8.72727 16.1858C8.72727 10.7813 13.1085 6.40001 18.5131 6.40001H22.2142Z"/>
</mask>
<path d="M26.0747 25.1807L24.0849 25.3826L23.9368 23.9226L25.285 23.3432L26.0747 25.1807ZM26.7665 32L28.7563 31.7981L29.2493 36.6577L25.4897 33.5394L26.7665 32ZM19.4983 25.9717V23.9717H20.2198L20.7751 24.4323L19.4983 25.9717ZM30 16.1858C30 11.8858 26.5142 8.40001 22.2142 8.40001V4.40001C28.7233 4.40001 34 9.67671 34 16.1858H30ZM25.285 23.3432C28.0617 22.1499 30 19.392 30 16.1858H34C34 21.047 31.0574 25.2163 26.8643 27.0182L25.285 23.3432ZM28.0645 24.9789L28.7563 31.7981L24.7767 32.2019L24.0849 25.3826L28.0645 24.9789ZM25.4897 33.5394L18.2215 27.5111L20.7751 24.4323L28.0433 30.4606L25.4897 33.5394ZM18.5131 23.9717H19.4983V27.9717H18.5131V23.9717ZM10.7273 16.1858C10.7273 20.4858 14.2131 23.9717 18.5131 23.9717V27.9717C12.004 27.9717 6.72727 22.695 6.72727 16.1858H10.7273ZM18.5131 8.40001C14.2131 8.40001 10.7273 11.8858 10.7273 16.1858H6.72727C6.72727 9.67671 12.004 4.40001 18.5131 4.40001V8.40001ZM22.2142 8.40001H18.5131V4.40001H22.2142V8.40001Z" fill="#2B2E73" mask="url(#path-1-inside-1_9:3)"/>
<mask id="path-3-inside-2_9:3" fill="white">
<path fill-rule="evenodd" clip-rule="evenodd" d="M9.78584 0C4.38127 0 0 4.38127 0 9.78584C0 13.8195 2.44044 17.2831 5.92533 18.7807L5.23349 25.6L12.5017 19.5717H13.4869C18.8915 19.5717 23.2727 15.1904 23.2727 9.78584C23.2727 4.38127 18.8915 0 13.4869 0H9.78584Z"/>
</mask>
<path fill-rule="evenodd" clip-rule="evenodd" d="M9.78584 0C4.38127 0 0 4.38127 0 9.78584C0 13.8195 2.44044 17.2831 5.92533 18.7807L5.23349 25.6L12.5017 19.5717H13.4869C18.8915 19.5717 23.2727 15.1904 23.2727 9.78584C23.2727 4.38127 18.8915 0 13.4869 0H9.78584Z" fill="#7FC485"/>
<path d="M5.92533 18.7807L7.91512 18.9826L8.06324 17.5226L6.71501 16.9432L5.92533 18.7807ZM5.23349 25.6L3.2437 25.3981L2.75068 30.2577L6.51029 27.1394L5.23349 25.6ZM12.5017 19.5717V17.5717H11.7802L11.2249 18.0323L12.5017 19.5717ZM2 9.78584C2 5.48584 5.48584 2 9.78584 2V-2C3.2767 -2 -2 3.2767 -2 9.78584H2ZM6.71501 16.9432C3.93827 15.7499 2 12.992 2 9.78584H-2C-2 14.647 0.942611 18.8162 5.13566 20.6182L6.71501 16.9432ZM3.93555 18.5789L3.2437 25.3981L7.22327 25.8019L7.91512 18.9826L3.93555 18.5789ZM6.51029 27.1394L13.7785 21.1111L11.2249 18.0323L3.95668 24.0606L6.51029 27.1394ZM13.4869 17.5717H12.5017V21.5717H13.4869V17.5717ZM21.2727 9.78584C21.2727 14.0858 17.7869 17.5717 13.4869 17.5717V21.5717C19.996 21.5717 25.2727 16.295 25.2727 9.78584H21.2727ZM13.4869 2C17.7869 2 21.2727 5.48584 21.2727 9.78584H25.2727C25.2727 3.2767 19.996 -2 13.4869 -2V2ZM9.78584 2H13.4869V-2H9.78584V2Z" fill="#2B2E73" mask="url(#path-3-inside-2_9:3)"/>
<circle cx="5.86365" cy="9.50001" r="1.5" fill="#2B2E73"/>
<circle cx="11.6818" cy="9.50001" r="1.5" fill="#2B2E73"/>
<circle cx="17.5" cy="9.50001" r="1.5" fill="#2B2E73"/>
</svg>
